<svg width="50" height="50" viewBox="0 0 50 50" fill="none" xmlns="http://www.w3.org/2000/svg">
<g clip-path="url(#clip0_134_15958)">
<rect width="50" height="50" fill="#140CFF"/>
<path d="M0 0.00488281H1.99829V0.00488281C1.99829 1.10851 1.10363 2.00488 0 2.00488V2.00488V0.00488281Z" fill="#0B06CD"/>
<path d="M-0.000732422 50L-0.000732509 48.0017V48.0017C1.10289 48.0017 1.99927 48.8964 1.99927 50V50L-0.000732422 50Z" fill="#0B06CD"/>
<path d="M50 0.00585938L50 2.00415V2.00415C48.8964 2.00415 48 1.10949 48 0.0058594V0.0058594L50 0.00585938Z" fill="#0B06CD"/>
<path d="M50 50L48.0017 50V50C48.0017 48.8964 48.8964 48 50 48V48L50 50Z" fill="#0B06CD"/>
</g>
<defs>
<clipPath id="clip0_134_15958">
<rect width="50" height="50" fill="white"/>
</clipPath>
</defs>
</svg>
