<svg width="182" height="40" viewBox="0 0 182 40" fill="none" xmlns="http://www.w3.org/2000/svg">
<g clip-path="url(#clip0_2045_2036)">
<path fill-rule="evenodd" clip-rule="evenodd" d="M16.3333 2C17.0697 2 17.6667 2.59695 17.6667 3.33333C17.6667 4.06971 17.0697 4.66667 16.3333 4.66667C15.597 4.66667 15 4.06971 15 3.33333C15 2.59695 15.597 2 16.3333 2ZM12.3333 7.34318C13.8061 7.34318 15 8.53709 15 10.0098C15 11.4826 13.8061 12.6765 12.3333 12.6765C10.8606 12.6765 9.66667 11.4826 9.66667 10.0098C9.66667 8.53709 10.8606 7.34318 12.3333 7.34318ZM4.33333 35.3629C5.06971 35.3629 5.66667 35.9598 5.66667 36.6962C5.66667 37.4326 5.06971 38.0295 4.33333 38.0295C3.59695 38.0295 3 37.4326 3 36.6962C3 35.9598 3.59695 35.3629 4.33333 35.3629ZM13.6667 36.6962C13.6667 35.9598 13.0697 35.3629 12.3333 35.3629C11.597 35.3629 11 35.9598 11 36.6962C11 37.4326 11.597 38.0295 12.3333 38.0295C13.0697 38.0295 13.6667 37.4326 13.6667 36.6962ZM28.3333 7.34318C29.8061 7.34318 31 8.53709 31 10.0098C31 11.4826 29.8061 12.6765 28.3333 12.6765C26.8606 12.6765 25.6667 11.4826 25.6667 10.0098C25.6667 8.53709 26.8606 7.34318 28.3333 7.34318ZM11 30.0197C11 28.5469 9.80609 27.353 8.33333 27.353C6.86057 27.353 5.66667 28.5469 5.66667 30.0197C5.66667 31.4925 6.86057 32.6864 8.33333 32.6864C9.80609 32.6864 11 31.4925 11 30.0197ZM20.3333 7.34318C21.8061 7.34318 23 8.53709 23 10.0098C23 11.4826 21.8061 12.6765 20.3333 12.6765C18.8606 12.6765 17.6667 11.4826 17.6667 10.0098C17.6667 8.53709 18.8606 7.34318 20.3333 7.34318ZM21.6667 36.6962C21.6667 35.9598 21.0697 35.3629 20.3333 35.3629C19.597 35.3629 19 35.9598 19 36.6962C19 37.4326 19.597 38.0295 20.3333 38.0295C21.0697 38.0295 21.6667 37.4326 21.6667 36.6962ZM19 30.0197C19 28.5469 17.8061 27.353 16.3333 27.353C14.8606 27.353 13.6667 28.5469 13.6667 30.0197C13.6667 31.4925 14.8606 32.6864 16.3333 32.6864C17.8061 32.6864 19 31.4925 19 30.0197ZM24.3333 2C25.0697 2 25.6667 2.59695 25.6667 3.33333C25.6667 4.06971 25.0697 4.66667 24.3333 4.66667C23.597 4.66667 23 4.06971 23 3.33333C23 2.59695 23.597 2 24.3333 2ZM27 30.0197C27 28.5469 25.8061 27.353 24.3333 27.353C22.8606 27.353 21.6667 28.5469 21.6667 30.0197C21.6667 31.4925 22.8606 32.6864 24.3333 32.6864C25.8061 32.6864 27 31.4925 27 30.0197ZM32.3333 2C33.0697 2 33.6667 2.59695 33.6667 3.33333C33.6667 4.06971 33.0697 4.66667 32.3333 4.66667C31.597 4.66667 31 4.06971 31 3.33333C31 2.59695 31.597 2 32.3333 2ZM25.0228 23.4201C25.0228 25.3034 26.5126 26.8352 28.3443 26.8352L28.3434 26.8342C30.1751 26.8342 31.6648 25.3025 31.6648 23.4192C31.6648 21.5359 30.1751 20.0042 28.3434 20.0042C28.1976 20.0042 28.0518 20.0136 27.9079 20.0334C27.8676 20.0381 27.8272 20.0409 27.7878 20.0409C27.4697 20.0409 27.1708 19.8713 27.003 19.5857C26.8151 19.2652 26.8298 18.8599 27.0397 18.5545C27.4385 17.9767 27.6484 17.2961 27.6484 16.5863C27.6484 14.7021 26.1569 13.1685 24.3242 13.1685C22.4916 13.1685 21 14.7011 21 16.5863C21 18.4715 22.4916 20.0051 24.3242 20.0051C24.47 20.0051 24.6176 19.9957 24.7615 19.9759C24.8019 19.9702 24.8422 19.9674 24.8816 19.9674C25.1997 19.9674 25.4986 20.138 25.6664 20.4227C25.8543 20.7432 25.8397 21.1475 25.6297 21.4539C25.2327 22.0317 25.0228 22.7113 25.0228 23.4201ZM12.3443 26.8351C10.5126 26.8351 9.02281 25.3034 9.02281 23.4201C9.02281 22.7113 9.23275 22.0317 9.62971 21.4538C9.83965 21.1475 9.85432 20.7431 9.66638 20.4226C9.49861 20.138 9.19974 19.9674 8.88162 19.9674C8.8422 19.9674 8.80186 19.9702 8.76152 19.9759C8.61759 19.9956 8.46999 20.0051 8.32422 20.0051C6.49159 20.0051 5 18.4715 5 16.5863C5 14.7011 6.49159 13.1684 8.32422 13.1684C10.1569 13.1684 11.6484 14.702 11.6484 16.5863C11.6484 17.2961 11.4385 17.9766 11.0397 18.5544C10.8298 18.8598 10.8151 19.2651 11.003 19.5856C11.1708 19.8712 11.4697 20.0409 11.7878 20.0409C11.8272 20.0409 11.8676 20.0381 11.9079 20.0334C12.0518 20.0136 12.1976 20.0041 12.3434 20.0041C14.1751 20.0041 15.6648 21.5358 15.6648 23.4192C15.6648 25.3025 14.1751 26.8342 12.3434 26.8342L12.3443 26.8351ZM16.3241 23.3467C16.3241 25.5506 18.1141 27.3432 20.3148 27.3432C22.5156 27.3432 24.3056 25.5415 24.3056 23.3467C24.3056 21.1519 22.523 19.3585 20.3313 19.3502C20.1379 19.3493 19.96 19.2474 19.8609 19.0812C19.7619 18.9149 19.7573 18.7092 19.8481 18.5384C20.158 17.9599 20.3148 17.3263 20.3148 16.6568C20.3148 14.4529 18.5249 12.6603 16.3241 12.6603C14.1233 12.6603 12.3333 14.4621 12.3333 16.6568C12.3333 18.8516 14.116 20.645 16.3076 20.6533C16.5011 20.6542 16.679 20.7562 16.778 20.9224C16.877 21.0886 16.8816 21.2943 16.7908 21.4651C16.4809 22.0436 16.3241 22.6773 16.3241 23.3467Z" fill="#140CFF"/>
<path d="M49.7387 33.224C48.1209 33.224 46.5654 33.0124 45.072 32.5893C43.5787 32.1413 42.4089 31.5813 41.5627 30.9093L43.056 28.072C43.9271 28.6942 44.9849 29.192 46.2294 29.5653C47.4738 29.9387 48.7307 30.1253 50 30.1253C53.136 30.1253 54.704 29.2293 54.704 27.4373C54.704 26.84 54.4925 26.3671 54.0694 26.0187C53.6462 25.6702 53.1111 25.4213 52.464 25.272C51.8418 25.0978 50.9458 24.9111 49.776 24.712C48.1831 24.4631 46.8765 24.1769 45.856 23.8533C44.8605 23.5298 44.0018 22.9822 43.28 22.2107C42.5582 21.4391 42.1974 20.3564 42.1974 18.9627C42.1974 17.1707 42.944 15.7396 44.4374 14.6693C45.9307 13.5742 47.9342 13.0267 50.448 13.0267C51.7671 13.0267 53.0862 13.1884 54.4054 13.512C55.7245 13.8356 56.8071 14.2711 57.6534 14.8187L56.1227 17.656C54.5049 16.6107 52.6009 16.088 50.4107 16.088C48.8925 16.088 47.7351 16.3369 46.9387 16.8347C46.1422 17.3324 45.744 17.992 45.744 18.8133C45.744 19.4604 45.968 19.9707 46.416 20.344C46.864 20.7173 47.4116 20.9911 48.0587 21.1653C48.7307 21.3396 49.664 21.5387 50.8587 21.7627C52.4516 22.0364 53.7334 22.3351 54.704 22.6587C55.6996 22.9573 56.5458 23.48 57.2427 24.2267C57.9396 24.9733 58.288 26.0187 58.288 27.3627C58.288 29.1547 57.5165 30.5858 55.9734 31.656C54.4551 32.7013 52.3769 33.224 49.7387 33.224ZM62.7671 13.2133H66.3511V33H62.7671V13.2133ZM64.5591 9.40533C63.8623 9.40533 63.2774 9.18133 62.8045 8.73333C62.3565 8.28533 62.1325 7.73777 62.1325 7.09066C62.1325 6.44355 62.3565 5.896 62.8045 5.448C63.2774 4.97511 63.8623 4.73866 64.5591 4.73866C65.256 4.73866 65.8285 4.96266 66.2765 5.41066C66.7494 5.83377 66.9858 6.36889 66.9858 7.016C66.9858 7.688 66.7494 8.26044 66.2765 8.73333C65.8285 9.18133 65.256 9.40533 64.5591 9.40533ZM83.6102 31.8427C83.0876 32.2907 82.4405 32.6391 81.6689 32.888C80.8973 33.112 80.1009 33.224 79.2796 33.224C77.2885 33.224 75.7453 32.6889 74.6502 31.6187C73.5551 30.5484 73.0076 29.0178 73.0076 27.0267V8.88266H76.5916V13.2133H82.2662V16.1627H76.5916V26.8773C76.5916 27.9476 76.8529 28.7689 77.3756 29.3413C77.9231 29.9138 78.6947 30.2 79.6902 30.2C80.7853 30.2 81.7187 29.8889 82.4902 29.2667L83.6102 31.8427ZM105.934 13.2133V33H102.499V29.864C101.703 30.9591 100.695 31.7929 99.4752 32.3653C98.2556 32.9378 96.9116 33.224 95.4432 33.224C93.5267 33.224 91.8094 32.8009 90.2911 31.9547C88.7729 31.1084 87.5783 29.9262 86.7071 28.408C85.8609 26.8649 85.4378 25.0978 85.4378 23.1067C85.4378 21.1156 85.8609 19.3609 86.7071 17.8427C87.5783 16.3244 88.7729 15.1422 90.2911 14.296C91.8094 13.4498 93.5267 13.0267 95.4432 13.0267C96.8618 13.0267 98.1685 13.3004 99.3632 13.848C100.558 14.3707 101.553 15.1547 102.35 16.2V13.2133H105.934ZM95.7418 30.088C96.9863 30.088 98.1187 29.8018 99.1392 29.2293C100.16 28.632 100.956 27.8107 101.528 26.7653C102.101 25.6951 102.387 24.4756 102.387 23.1067C102.387 21.7378 102.101 20.5307 101.528 19.4853C100.956 18.4151 100.16 17.5938 99.1392 17.0213C98.1187 16.4489 96.9863 16.1627 95.7418 16.1627C94.4725 16.1627 93.3276 16.4489 92.3072 17.0213C91.3116 17.5938 90.5151 18.4151 89.9178 19.4853C89.3454 20.5307 89.0592 21.7378 89.0592 23.1067C89.0592 24.4756 89.3454 25.6951 89.9178 26.7653C90.5151 27.8107 91.3116 28.632 92.3072 29.2293C93.3276 29.8018 94.4725 30.088 95.7418 30.088ZM123.131 31.8427C122.608 32.2907 121.961 32.6391 121.19 32.888C120.418 33.112 119.622 33.224 118.8 33.224C116.809 33.224 115.266 32.6889 114.171 31.6187C113.076 30.5484 112.528 29.0178 112.528 27.0267V8.88266H116.112V13.2133H121.787V16.1627H116.112V26.8773C116.112 27.9476 116.374 28.7689 116.896 29.3413C117.444 29.9138 118.216 30.2 119.211 30.2C120.306 30.2 121.24 29.8889 122.011 29.2667L123.131 31.8427ZM127.444 13.2133H131.028V33H127.444V13.2133ZM129.236 9.40533C128.539 9.40533 127.954 9.18133 127.482 8.73333C127.034 8.28533 126.81 7.73777 126.81 7.09066C126.81 6.44355 127.034 5.896 127.482 5.448C127.954 4.97511 128.539 4.73866 129.236 4.73866C129.933 4.73866 130.506 4.96266 130.954 5.41066C131.426 5.83377 131.663 6.36889 131.663 7.016C131.663 7.688 131.426 8.26044 130.954 8.73333C130.506 9.18133 129.933 9.40533 129.236 9.40533ZM146.346 33.224C144.38 33.224 142.613 32.7884 141.045 31.9173C139.477 31.0462 138.245 29.8516 137.349 28.3333C136.478 26.7902 136.042 25.048 136.042 23.1067C136.042 21.1653 136.478 19.4356 137.349 17.9173C138.245 16.3742 139.477 15.1796 141.045 14.3333C142.613 13.4622 144.38 13.0267 146.346 13.0267C148.312 13.0267 150.067 13.4622 151.61 14.3333C153.178 15.1796 154.398 16.3742 155.269 17.9173C156.165 19.4356 156.613 21.1653 156.613 23.1067C156.613 25.048 156.165 26.7902 155.269 28.3333C154.398 29.8516 153.178 31.0462 151.61 31.9173C150.067 32.7884 148.312 33.224 146.346 33.224ZM146.346 30.088C147.615 30.088 148.748 29.8018 149.743 29.2293C150.764 28.632 151.56 27.8107 152.133 26.7653C152.705 25.6951 152.991 24.4756 152.991 23.1067C152.991 21.7378 152.705 20.5307 152.133 19.4853C151.56 18.4151 150.764 17.5938 149.743 17.0213C148.748 16.4489 147.615 16.1627 146.346 16.1627C145.077 16.1627 143.932 16.4489 142.911 17.0213C141.916 17.5938 141.119 18.4151 140.522 19.4853C139.95 20.5307 139.663 21.7378 139.663 23.1067C139.663 24.4756 139.95 25.6951 140.522 26.7653C141.119 27.8107 141.916 28.632 142.911 29.2293C143.932 29.8018 145.077 30.088 146.346 30.088ZM172.135 13.0267C174.648 13.0267 176.639 13.7609 178.108 15.2293C179.601 16.6729 180.348 18.8009 180.348 21.6133V33H176.764V22.024C176.764 20.1076 176.303 18.664 175.383 17.6933C174.462 16.7227 173.143 16.2373 171.425 16.2373C169.484 16.2373 167.953 16.8098 166.833 17.9547C165.713 19.0747 165.153 20.6924 165.153 22.808V33H161.569V13.2133H165.004V16.2C165.726 15.1796 166.696 14.3956 167.916 13.848C169.16 13.3004 170.567 13.0267 172.135 13.0267Z" fill="#0F172A"/>
</g>
<defs>
<clipPath id="clip0_2045_2036">
<rect width="182" height="40" fill="white"/>
</clipPath>
</defs>
</svg>
