<svg width="186" height="40" viewBox="0 0 186 40" fill="none" xmlns="http://www.w3.org/2000/svg">
<g clip-path="url(#clip0_2045_2093)">
<path fill-rule="evenodd" clip-rule="evenodd" d="M17.3333 1.98523C18.0697 1.98523 18.6667 2.58218 18.6667 3.31856C18.6667 4.05494 18.0697 4.6519 17.3333 4.6519C16.597 4.6519 16 4.05494 16 3.31856C16 2.58218 16.597 1.98523 17.3333 1.98523ZM13.3333 7.32841C14.8061 7.32841 16 8.52232 16 9.99508C16 11.4678 14.8061 12.6617 13.3333 12.6617C11.8606 12.6617 10.6667 11.4678 10.6667 9.99508C10.6667 8.52232 11.8606 7.32841 13.3333 7.32841ZM5.33333 35.3481C6.06971 35.3481 6.66667 35.9451 6.66667 36.6814C6.66667 37.4178 6.06971 38.0148 5.33333 38.0148C4.59695 38.0148 4 37.4178 4 36.6814C4 35.9451 4.59695 35.3481 5.33333 35.3481ZM14.6667 36.6814C14.6667 35.9451 14.0697 35.3481 13.3333 35.3481C12.597 35.3481 12 35.9451 12 36.6814C12 37.4178 12.597 38.0148 13.3333 38.0148C14.0697 38.0148 14.6667 37.4178 14.6667 36.6814ZM29.3333 7.32841C30.8061 7.32841 32 8.52232 32 9.99508C32 11.4678 30.8061 12.6617 29.3333 12.6617C27.8606 12.6617 26.6667 11.4678 26.6667 9.99508C26.6667 8.52232 27.8606 7.32841 29.3333 7.32841ZM12 30.0049C12 28.5322 10.8061 27.3383 9.33333 27.3383C7.86057 27.3383 6.66667 28.5322 6.66667 30.0049C6.66667 31.4777 7.86057 32.6716 9.33333 32.6716C10.8061 32.6716 12 31.4777 12 30.0049ZM21.3333 7.32841C22.8061 7.32841 24 8.52232 24 9.99508C24 11.4678 22.8061 12.6617 21.3333 12.6617C19.8606 12.6617 18.6667 11.4678 18.6667 9.99508C18.6667 8.52232 19.8606 7.32841 21.3333 7.32841ZM22.6667 36.6814C22.6667 35.9451 22.0697 35.3481 21.3333 35.3481C20.597 35.3481 20 35.9451 20 36.6814C20 37.4178 20.597 38.0148 21.3333 38.0148C22.0697 38.0148 22.6667 37.4178 22.6667 36.6814ZM20 30.0049C20 28.5322 18.8061 27.3383 17.3333 27.3383C15.8606 27.3383 14.6667 28.5322 14.6667 30.0049C14.6667 31.4777 15.8606 32.6716 17.3333 32.6716C18.8061 32.6716 20 31.4777 20 30.0049ZM25.3333 1.98523C26.0697 1.98523 26.6667 2.58218 26.6667 3.31856C26.6667 4.05494 26.0697 4.6519 25.3333 4.6519C24.597 4.6519 24 4.05494 24 3.31856C24 2.58218 24.597 1.98523 25.3333 1.98523ZM28 30.0049C28 28.5322 26.8061 27.3383 25.3333 27.3383C23.8606 27.3383 22.6667 28.5322 22.6667 30.0049C22.6667 31.4777 23.8606 32.6716 25.3333 32.6716C26.8061 32.6716 28 31.4777 28 30.0049ZM33.3333 1.98523C34.0697 1.98523 34.6667 2.58218 34.6667 3.31856C34.6667 4.05494 34.0697 4.6519 33.3333 4.6519C32.597 4.6519 32 4.05494 32 3.31856C32 2.58218 32.597 1.98523 33.3333 1.98523ZM26.0228 23.2467C26.0228 25.13 27.5126 26.6617 29.3443 26.6617L29.3434 26.6608C31.1751 26.6608 32.6648 25.1291 32.6648 23.2458C32.6648 21.3625 31.1751 19.8308 29.3434 19.8308C29.1976 19.8308 29.0518 19.8402 28.9079 19.86C28.8676 19.8647 28.8272 19.8675 28.7878 19.8675C28.4697 19.8675 28.1708 19.6979 28.003 19.4123C27.8151 19.0918 27.8298 18.6865 28.0397 18.3811C28.4385 17.8032 28.6484 17.1227 28.6484 16.4129C28.6484 14.5287 27.1569 12.9951 25.3242 12.9951C23.4916 12.9951 22 14.5277 22 16.4129C22 18.2981 23.4916 19.8317 25.3242 19.8317C25.47 19.8317 25.6176 19.8223 25.7615 19.8025C25.8019 19.7968 25.8422 19.794 25.8816 19.794C26.1997 19.794 26.4986 19.9646 26.6664 20.2493C26.8543 20.5698 26.8397 20.9741 26.6297 21.2805C26.2327 21.8583 26.0228 22.5379 26.0228 23.2467ZM13.3443 26.6617C11.5126 26.6617 10.0228 25.13 10.0228 23.2467C10.0228 22.5379 10.2327 21.8583 10.6297 21.2805C10.8397 20.9741 10.8543 20.5698 10.6664 20.2493C10.4986 19.9646 10.1997 19.794 9.88162 19.794C9.8422 19.794 9.80186 19.7968 9.76152 19.8025C9.61759 19.8223 9.46999 19.8317 9.32422 19.8317C7.49159 19.8317 6 18.2981 6 16.4129C6 14.5277 7.49159 12.9951 9.32422 12.9951C11.1569 12.9951 12.6484 14.5287 12.6484 16.4129C12.6484 17.1227 12.4385 17.8032 12.0397 18.3811C11.8298 18.6865 11.8151 19.0918 12.003 19.4123C12.1708 19.6979 12.4697 19.8675 12.7878 19.8675C12.8272 19.8675 12.8676 19.8647 12.9079 19.86C13.0518 19.8402 13.1976 19.8308 13.3434 19.8308C15.1751 19.8308 16.6648 21.3625 16.6648 23.2458C16.6648 25.1291 15.1751 26.6608 13.3434 26.6608L13.3443 26.6617ZM17.3333 23.3363C17.3333 25.5378 19.1275 27.3284 21.3333 27.3284C23.5392 27.3284 25.3333 25.5287 25.3333 23.3363C25.3333 21.144 23.5466 19.3525 21.3499 19.3443C21.1559 19.3433 20.9776 19.2415 20.8784 19.0755C20.7791 18.9095 20.7745 18.704 20.8655 18.5334C21.1762 17.9555 21.3333 17.3225 21.3333 16.6538C21.3333 14.4523 19.5392 12.6617 17.3333 12.6617C15.1275 12.6617 13.3333 14.4615 13.3333 16.6538C13.3333 18.8462 15.1201 20.6376 17.3168 20.6459C17.5107 20.6468 17.689 20.7486 17.7883 20.9147C17.8876 21.0807 17.8922 21.2862 17.8012 21.4568C17.4905 22.0347 17.3333 22.6676 17.3333 23.3363Z" fill="white"/>
<path d="M53.072 33.224C51.4542 33.224 49.8987 33.0124 48.4053 32.5893C46.912 32.1413 45.7422 31.5813 44.896 30.9093L46.3893 28.072C47.2604 28.6942 48.3182 29.192 49.5627 29.5653C50.8071 29.9387 52.064 30.1253 53.3333 30.1253C56.4693 30.1253 58.0373 29.2293 58.0373 27.4373C58.0373 26.84 57.8258 26.3671 57.4027 26.0187C56.9796 25.6702 56.4444 25.4213 55.7973 25.272C55.1751 25.0978 54.2791 24.9111 53.1093 24.712C51.5164 24.4631 50.2098 24.1769 49.1893 23.8533C48.1938 23.5298 47.3351 22.9822 46.6133 22.2107C45.8916 21.4391 45.5307 20.3564 45.5307 18.9627C45.5307 17.1707 46.2773 15.7396 47.7707 14.6693C49.264 13.5742 51.2676 13.0267 53.7813 13.0267C55.1004 13.0267 56.4196 13.1884 57.7387 13.512C59.0578 13.8356 60.1404 14.2711 60.9867 14.8187L59.456 17.656C57.8382 16.6107 55.9342 16.088 53.744 16.088C52.2258 16.088 51.0684 16.3369 50.272 16.8347C49.4756 17.3324 49.0773 17.992 49.0773 18.8133C49.0773 19.4604 49.3013 19.9707 49.7493 20.344C50.1973 20.7173 50.7449 20.9911 51.392 21.1653C52.064 21.3396 52.9973 21.5387 54.192 21.7627C55.7849 22.0364 57.0667 22.3351 58.0373 22.6587C59.0329 22.9573 59.8791 23.48 60.576 24.2267C61.2729 24.9733 61.6213 26.0187 61.6213 27.3627C61.6213 29.1547 60.8498 30.5858 59.3067 31.656C57.7884 32.7013 55.7102 33.224 53.072 33.224ZM66.1005 13.2133H69.6845V33H66.1005V13.2133ZM67.8925 9.40533C67.1956 9.40533 66.6107 9.18133 66.1378 8.73333C65.6898 8.28533 65.4658 7.73777 65.4658 7.09066C65.4658 6.44355 65.6898 5.896 66.1378 5.448C66.6107 4.97511 67.1956 4.73866 67.8925 4.73866C68.5893 4.73866 69.1618 4.96266 69.6098 5.41066C70.0827 5.83377 70.3191 6.36889 70.3191 7.016C70.3191 7.688 70.0827 8.26044 69.6098 8.73333C69.1618 9.18133 68.5893 9.40533 67.8925 9.40533ZM86.9435 31.8427C86.4209 32.2907 85.7738 32.6391 85.0022 32.888C84.2307 33.112 83.4342 33.224 82.6129 33.224C80.6218 33.224 79.0787 32.6889 77.9835 31.6187C76.8884 30.5484 76.3409 29.0178 76.3409 27.0267V8.88266H79.9249V13.2133H85.5995V16.1627H79.9249V26.8773C79.9249 27.9476 80.1862 28.7689 80.7089 29.3413C81.2564 29.9138 82.028 30.2 83.0235 30.2C84.1187 30.2 85.052 29.8889 85.8235 29.2667L86.9435 31.8427ZM109.267 13.2133V33H105.832V29.864C105.036 30.9591 104.028 31.7929 102.808 32.3653C101.589 32.9378 100.245 33.224 98.7765 33.224C96.86 33.224 95.1427 32.8009 93.6245 31.9547C92.1062 31.1084 90.9116 29.9262 90.0405 28.408C89.1942 26.8649 88.7711 25.0978 88.7711 23.1067C88.7711 21.1156 89.1942 19.3609 90.0405 17.8427C90.9116 16.3244 92.1062 15.1422 93.6245 14.296C95.1427 13.4498 96.86 13.0267 98.7765 13.0267C100.195 13.0267 101.502 13.3004 102.696 13.848C103.891 14.3707 104.887 15.1547 105.683 16.2V13.2133H109.267ZM99.0751 30.088C100.32 30.088 101.452 29.8018 102.472 29.2293C103.493 28.632 104.289 27.8107 104.862 26.7653C105.434 25.6951 105.72 24.4756 105.72 23.1067C105.72 21.7378 105.434 20.5307 104.862 19.4853C104.289 18.4151 103.493 17.5938 102.472 17.0213C101.452 16.4489 100.32 16.1627 99.0751 16.1627C97.8058 16.1627 96.6609 16.4489 95.6405 17.0213C94.6449 17.5938 93.8485 18.4151 93.2511 19.4853C92.6787 20.5307 92.3925 21.7378 92.3925 23.1067C92.3925 24.4756 92.6787 25.6951 93.2511 26.7653C93.8485 27.8107 94.6449 28.632 95.6405 29.2293C96.6609 29.8018 97.8058 30.088 99.0751 30.088ZM126.464 31.8427C125.942 32.2907 125.295 32.6391 124.523 32.888C123.751 33.112 122.955 33.224 122.134 33.224C120.143 33.224 118.599 32.6889 117.504 31.6187C116.409 30.5484 115.862 29.0178 115.862 27.0267V8.88266H119.446V13.2133H125.12V16.1627H119.446V26.8773C119.446 27.9476 119.707 28.7689 120.23 29.3413C120.777 29.9138 121.549 30.2 122.544 30.2C123.639 30.2 124.573 29.8889 125.344 29.2667L126.464 31.8427ZM130.778 13.2133H134.362V33H130.778V13.2133ZM132.57 9.40533C131.873 9.40533 131.288 9.18133 130.815 8.73333C130.367 8.28533 130.143 7.73777 130.143 7.09066C130.143 6.44355 130.367 5.896 130.815 5.448C131.288 4.97511 131.873 4.73866 132.57 4.73866C133.266 4.73866 133.839 4.96266 134.287 5.41066C134.76 5.83377 134.996 6.36889 134.996 7.016C134.996 7.688 134.76 8.26044 134.287 8.73333C133.839 9.18133 133.266 9.40533 132.57 9.40533ZM149.679 33.224C147.713 33.224 145.946 32.7884 144.378 31.9173C142.81 31.0462 141.578 29.8516 140.682 28.3333C139.811 26.7902 139.375 25.048 139.375 23.1067C139.375 21.1653 139.811 19.4356 140.682 17.9173C141.578 16.3742 142.81 15.1796 144.378 14.3333C145.946 13.4622 147.713 13.0267 149.679 13.0267C151.646 13.0267 153.4 13.4622 154.943 14.3333C156.511 15.1796 157.731 16.3742 158.602 17.9173C159.498 19.4356 159.946 21.1653 159.946 23.1067C159.946 25.048 159.498 26.7902 158.602 28.3333C157.731 29.8516 156.511 31.0462 154.943 31.9173C153.4 32.7884 151.646 33.224 149.679 33.224ZM149.679 30.088C150.949 30.088 152.081 29.8018 153.077 29.2293C154.097 28.632 154.894 27.8107 155.466 26.7653C156.038 25.6951 156.325 24.4756 156.325 23.1067C156.325 21.7378 156.038 20.5307 155.466 19.4853C154.894 18.4151 154.097 17.5938 153.077 17.0213C152.081 16.4489 150.949 16.1627 149.679 16.1627C148.41 16.1627 147.265 16.4489 146.245 17.0213C145.249 17.5938 144.453 18.4151 143.855 19.4853C143.283 20.5307 142.997 21.7378 142.997 23.1067C142.997 24.4756 143.283 25.6951 143.855 26.7653C144.453 27.8107 145.249 28.632 146.245 29.2293C147.265 29.8018 148.41 30.088 149.679 30.088ZM175.468 13.0267C177.982 13.0267 179.973 13.7609 181.441 15.2293C182.935 16.6729 183.681 18.8009 183.681 21.6133V33H180.097V22.024C180.097 20.1076 179.637 18.664 178.716 17.6933C177.795 16.7227 176.476 16.2373 174.759 16.2373C172.817 16.2373 171.287 16.8098 170.167 17.9547C169.047 19.0747 168.487 20.6924 168.487 22.808V33H164.903V13.2133H168.337V16.2C169.059 15.1796 170.03 14.3956 171.249 13.848C172.494 13.3004 173.9 13.0267 175.468 13.0267Z" fill="white"/>
</g>
<defs>
<clipPath id="clip0_2045_2093">
<rect width="186" height="40" fill="white"/>
</clipPath>
</defs>
</svg>
